<svg xmlns="http://www.w3.org/2000/svg" width="186" height="21" viewBox="0 0 186 21"><g fill="#393939" fill-rule="evenodd"><text font-family=".AppleSystemUIFont" font-size="12"><tspan x="0" y="15" font-family="Helvetica">my.</tspan></text><path d="M29.82.42h1.78L43.25 13.5h.25V.42h1.66v15.25h-2.14L31.72 2.82h-.38v12.85h-1.52V.42M85 .42h1.8L98.43 13.5h.25V.42h1.65v15.25H98.2L86.93 2.82h-.4v12.85h-1.5V.42M53.33 14.4c4.68 0 6.6-2.5 6.6-6.36 0-4.5-2.9-6.48-7.6-6.36h-2.36V14.4h3.36zM52.96.42c5.46 0 8.57 2.57 8.57 7.62 0 5.05-3.1 7.63-8.57 7.63h-4.5V.42h4.5zM64.53 15.67L64.56.35h1.8l-.05 15.32h-1.77M78.92 8.18l-2.85-6.5H76l-2.87 6.5h5.8zm-10.74 7.5L75.03.4H77l6.8 15.25h-1.55l-2.8-6.25h-6.84l-2.76 6.25h-1.66zM112.42 8.18l-2.86-6.5h-.05l-2.87 6.5h5.8zm-10.75 7.5L108.52.4h2l6.78 15.25h-1.56l-2.78-6.25h-6.85l-2.77 6.25h-1.66zM24.05 15.67h1.73V.35h-1.73M119.4.42h15.17v2.53H129v12.72h-4.02V2.95h-5.57V.42M136.8.42h14.63v2.53h-9.93V6.9h8.62v2.53h-8.62v3.7h9.93v2.54H136.8V.42M164.72 10.34c-.52 1.5-1.7 2.5-3.74 2.5-2.96 0-4.08-2.08-4.08-4.65 0-2.58 1.15-4.67 4.08-4.67 1.97 0 3.14.95 3.7 2.36l3.45-.5C167 2.45 164.16.37 160.83.37c-4.33 0-7.84 3.5-7.84 7.8 0 4.32 3.5 7.82 7.83 7.82 3.4 0 6.27-2.15 7.36-5.16l-3.48-.5M170.57 15.67V.42h3.97V6.9h7V.4h4v15.25h-3.96V9.52h-7.04v6.15h-3.97"/></g></svg>