<svg xmlns="http://www.w3.org/2000/svg" width="133" height="29" viewBox="0 0 133 29" xmlns:xlink="http://www.w3.org/1999/xlink"><defs><path id="a" d="M0 28.9h132.93V0H0z"/></defs><g fill="none" fill-rule="evenodd"><g><path fill="#FFF" d="M47.68 14.52c0-2.26-.54-4.02-1.6-5.28-1.08-1.27-2.56-1.9-4.47-1.9-1.2 0-2.26.3-3.2.9-.96.6-1.7 1.45-2.22 2.56-.52 1.1-.78 2.33-.78 3.7 0 1.38.25 2.62.75 3.7s1.22 1.92 2.15 2.5c.93.6 1.98.9 3.16.9 1.94 0 3.46-.63 4.57-1.88 1.1-1.26 1.65-3 1.65-5.2zm2.15-.27c0 1.85-.34 3.47-1.02 4.86-.67 1.4-1.65 2.46-2.93 3.2-1.27.76-2.74 1.14-4.4 1.14-1.6 0-3.04-.37-4.3-1.1-1.24-.72-2.2-1.76-2.9-3.1-.68-1.34-1.02-2.86-1.02-4.56 0-1.83.34-3.44 1.04-4.84.68-1.4 1.67-2.46 2.97-3.2 1.3-.75 2.8-1.12 4.5-1.12 1.56 0 2.95.36 4.2 1.1 1.22.73 2.18 1.76 2.85 3.1.67 1.32 1 2.83 1 4.53zM58.64 6.56c-.4-.22-.83-.33-1.33-.33-1.4 0-2.1.87-2.1 2.62v1.9h2.94v1.7H55.2v10.7h-2v-10.7h-2.13v-1.7h2.13v-2c0-1.25.38-2.27 1.13-3.04.75-.76 1.7-1.15 2.86-1.15.6 0 1.08.07 1.44.22v1.8z"/><path fill="#FFF" d="M65.55 6.56c-.4-.22-.83-.33-1.33-.33-1.4 0-2.1.87-2.1 2.62v1.9h2.93v1.7h-2.93v10.7h-2v-10.7h-2.13v-1.7h2.1v-2c0-1.25.4-2.27 1.14-3.04.75-.76 1.7-1.15 2.86-1.15.6 0 1.1.07 1.45.22v1.8z"/><mask id="b" fill="#fff"><use xlink:href="#a"/></mask><path fill="#FFF" d="M66.9 23.13h2V10.76h-2v12.37zm2.35-16.8c0 .37-.13.68-.4.92-.25.25-.56.37-.92.37s-.68-.12-.93-.36c-.25-.23-.38-.55-.38-.93 0-.35.13-.65.38-.9.25-.26.56-.38.93-.38.38 0 .7.12.94.37.26.25.38.55.38.9zM80.36 22.57c-.97.58-2.12.87-3.44.87-1.14 0-2.17-.26-3.08-.78-.9-.52-1.6-1.26-2.12-2.2-.5-.96-.76-2.03-.76-3.2 0-2.05.6-3.7 1.78-4.94 1.2-1.24 2.77-1.86 4.74-1.86 1.1 0 2.06.2 2.9.63v2.02c-.94-.65-1.93-.97-2.98-.97-1.3 0-2.35.46-3.16 1.37-.82.92-1.22 2.1-1.22 3.55 0 1.44.38 2.58 1.15 3.42.77.83 1.8 1.24 3.1 1.24 1.1 0 2.12-.35 3.1-1.06v1.9zM90.62 15.76c0-1.14-.3-2.03-.84-2.66-.54-.63-1.3-.95-2.3-.95-.92 0-1.7.33-2.37 1-.65.65-1.07 1.53-1.24 2.6h6.76zm2.06 1.68h-8.84c.03 1.4.4 2.46 1.12 3.2.7.74 1.7 1.1 2.96 1.1 1.42 0 2.7-.45 3.88-1.35v1.84c-1.1.8-2.55 1.2-4.36 1.2-1.78 0-3.17-.57-4.18-1.7-1-1.15-1.5-2.73-1.5-4.74 0-1.23.25-2.35.75-3.36.5-1 1.2-1.8 2.08-2.35.88-.56 1.86-.84 2.94-.84 1.62 0 2.88.52 3.8 1.56.9 1.05 1.36 2.5 1.36 4.38v1.04zM107.94 18.23c0 1.56-.57 2.82-1.7 3.78-1.14.96-2.63 1.44-4.47 1.44-1.67 0-3-.32-3.98-.94v-2.13c1.17.92 2.52 1.38 4.05 1.38 1.23 0 2.2-.3 2.94-.9.72-.6 1.08-1.42 1.08-2.44 0-2.25-1.63-3.38-4.9-3.38h-1.44v-1.68h1.38c2.88 0 4.33-1.07 4.33-3.2 0-1.96-1.1-2.94-3.3-2.94-1.25 0-2.4.4-3.5 1.23V6.5c1.13-.65 2.45-.98 4-.98 1.45 0 2.62.38 3.5 1.14.9.76 1.35 1.76 1.35 3 0 2.27-1.17 3.74-3.5 4.4v.04c1.24.13 2.24.58 3 1.33.76.74 1.14 1.68 1.14 2.8M119.07 17.9c0-1.22-.3-2.17-.9-2.87-.6-.7-1.43-1.05-2.5-1.05-.98 0-1.8.34-2.48 1.02-.68.68-1 1.5-1 2.47 0 1.2.32 2.23 1 3.05.65.82 1.5 1.22 2.5 1.22s1.82-.35 2.44-1.06c.62-.72.93-1.65.93-2.8m2.06-.24c0 1.1-.24 2.1-.72 2.98-.46.9-1.12 1.6-1.96 2.08-.84.5-1.78.74-2.83.74-1.74 0-3.1-.7-4.1-2.1-1-1.4-1.5-3.33-1.5-5.83 0-1.97.3-3.72.88-5.24.6-1.52 1.42-2.7 2.5-3.5 1.1-.83 2.34-1.24 3.76-1.24 1.2 0 2.18.16 2.9.5v1.87c-.9-.47-1.85-.7-2.85-.7-1.56 0-2.8.68-3.73 2.06-.94 1.37-1.4 3.2-1.4 5.5h.05c.8-1.65 2.14-2.46 4-2.46 1.5 0 2.73.48 3.64 1.46.9.98 1.37 2.27 1.37 3.88M132.93 17.84c0 1.7-.57 3.04-1.7 4.06-1.12 1.03-2.63 1.54-4.5 1.54-1.64 0-2.85-.24-3.64-.73v-2.1c1.18.77 2.4 1.15 3.64 1.15 1.24 0 2.24-.35 3-1.03.76-.7 1.14-1.6 1.14-2.76 0-1.13-.4-2-1.15-2.65-.77-.63-1.88-.95-3.34-.95-1.18 0-2.17.05-2.98.14l.6-8.7h8.1v1.8h-6.37l-.35 5.08 1.6-.06c1.84 0 3.28.46 4.34 1.37 1.06.9 1.6 2.18 1.6 3.84M24.4 26.5V2.48L15.7 0 .03 5.8 0 5.83v17.36l5.34-2.07V7L15.7 4.53V25.3L0 23.2l15.7 5.72 8.7-2.37v-.03" mask="url(#b)"/></g></g></svg>