<svg xmlns="http://www.w3.org/2000/svg" width="131" height="33"><path fill="#000" d="M4.72 16.242A4.704 4.704 0 0 0 .59 11.57a18.658 18.658 0 0 0 0 9.344 4.704 4.704 0 0 0 4.13-4.672m2.734-1.473a1.477 1.477 0 1 0 0 2.954 1.477 1.477 0 0 0 0-2.954m20.368 1.473a4.704 4.704 0 0 0 4.13 4.672 18.67 18.67 0 0 0 0-9.344 4.704 4.704 0 0 0-4.13 4.672m-2.734-1.473a1.477 1.477 0 1 0 0 2.954 1.477 1.477 0 0 0 0-2.954M16.24 27.838a4.708 4.708 0 0 0-4.668 4.144c3.065.787 6.279.787 9.343 0a4.708 4.708 0 0 0-4.671-4.13m-.004-4.225a1.477 1.477 0 1 0 0 2.954 1.477 1.477 0 0 0 0-2.954m0-18.906c2.376 0 4.38-1.77 4.672-4.129a18.686 18.686 0 0 0-9.343 0 4.708 4.708 0 0 0 4.671 4.13m0 1.257a1.477 1.477 0 1 0 0 2.954 1.477 1.477 0 0 0 0-2.954m8.194 18.456a4.708 4.708 0 0 0-.381 6.217 18.686 18.686 0 0 0 6.587-6.612 4.711 4.711 0 0 0-6.206.395m-2.987-2.986a1.473 1.473 0 1 0 2.088 2.08 1.473 1.473 0 0 0-2.088-2.08M8.083 8.085a4.704 4.704 0 0 0 .384-6.214 18.686 18.686 0 0 0-6.6 6.598 4.704 4.704 0 0 0 6.216-.384m.898.898a1.477 1.477 0 1 0 2.088 2.09 1.477 1.477 0 0 0-2.088-2.09m15.453-.913a4.708 4.708 0 0 0 6.213.385 18.686 18.686 0 0 0-6.616-6.602 4.704 4.704 0 0 0 .403 6.217m-.91 2.98a1.477 1.477 0 1 0-2.087-2.09 1.477 1.477 0 0 0 2.087 2.09M8.076 24.406a4.711 4.711 0 0 0-6.217-.384 18.686 18.686 0 0 0 6.601 6.601 4.711 4.711 0 0 0-.384-6.217m.905-2.975a1.473 1.473 0 1 0 2.088 2.08 1.473 1.473 0 0 0-2.088-2.08m45.142 1.699c0 3.192-2.07 4.374-5.2 4.374h-.053c-3.13 0-5.2-1.153-5.2-4.373V10.719c0-3.073 2.07-4.374 5.2-4.374h.06c3.13 0 5.2 1.301 5.2 4.374v2.45h-3.428v-1.915c0-1.437-.718-1.894-1.796-1.894-1.079 0-1.797.446-1.797 1.894V22.6c0 1.437.718 1.89 1.797 1.89 1.078 0 1.796-.442 1.796-1.89v-2.42h3.429l-.008 2.95Zm12.147-.47h-3.78l-.741 4.607h-3.31l3.842-20.684h4.312l3.899 20.684h-3.486l-.737-4.607Zm-.443-2.839-1.437-9.189-1.437 9.19h2.874Zm9.34 7.446V6.583h3.428l4.345 12.796V6.583h3.13v20.684h-3.249l-4.52-13.443v13.443zm23.257 0h-3.78L90.745 6.583h3.486l2.393 15.337 2.393-15.337h3.31zm14.13-4.607h-3.784l-.737 4.607h-3.31l3.842-20.684h4.313l3.91 20.684h-3.49l-.744-4.607Zm-.438-2.839-1.438-9.189-1.437 9.19h2.875Zm15.452-7.183v-1.564c0-1.3-.74-1.771-1.743-1.771-1.003 0-1.743.47-1.743 1.771v1.438c0 1.078.36 1.534 1.33 2.099l2.422 1.358c1.98 1.121 3.162 2.037 3.162 4.255v2.986c0 3.19-1.98 4.312-5.113 4.312h-.058c-3.133 0-5.114-1.078-5.114-4.312v-2.192h3.371v1.717c0 1.273.737 1.833 1.772 1.833 1.035 0 1.771-.56 1.771-1.833v-1.642c0-1.078-.323-1.595-1.358-2.156l-2.393-1.358c-2.009-1.154-3.163-2.099-3.163-4.255v-2.72c0-3.076 2.246-4.259 5.085-4.259h.058c2.835 0 5.081 1.183 5.081 4.259v2.034h-3.367Z"/></svg>