<svg xmlns="http://www.w3.org/2000/svg" width="200.63" height="30.47">
  <g fill="#fff">
    <path d="M0 4.39h4.57V21H15v4.2H0zM17.63 4.39h15.7v4.07H22.2v4.23H32v4.07h-9.8v4.37h11.3v4.08H17.63zM41.63 8.61h-6.3V4.39h17.3v4.22h-6.39V25.2h-4.61zM63.51 4.39h4.93l5.47 8.8 5.47-8.8h4.94V25.2h-4.55V11.61l-5.86 8.89h-.11L68 11.69v13.5h-4.49zM88.56 4.39h15.7v4.07H93.11v4.23h9.81v4.07h-9.81v4.37h11.3v4.08H88.56zM116.11 4.39h4.58V25.2h-4.58zM125.15 4.39h4.22l9.75 12.81V4.39h4.51V25.2h-3.89L129.63 12v13.2h-4.52zM155.93 9.06A2.89 2.89 0 11153 6.17a2.9 2.9 0 012.93 2.89zM162.31 9.06a2.89 2.89 0 11-2.89-2.89 2.9 2.9 0 012.89 2.89zM168.69 9.06a2.89 2.89 0 11-2.89-2.89 2.89 2.89 0 012.89 2.89zM175.07 9.06a2.89 2.89 0 11-2.89-2.89 2.89 2.89 0 012.89 2.89zM181.45 9.06a2.89 2.89 0 11-2.89-2.89 2.89 2.89 0 012.89 2.89zM187.83 9.06a2.89 2.89 0 11-2.89-2.89 2.89 2.89 0 012.89 2.89zM194.21 9.06a2.89 2.89 0 11-2.89-2.89 2.89 2.89 0 012.89 2.89zM187.83 2.89A2.89 2.89 0 11184.94 0a2.88 2.88 0 012.89 2.87zM155.93 15.23a2.89 2.89 0 11-2.9-2.88 2.88 2.88 0 012.88 2.88zM162.31 15.23a2.89 2.89 0 11-2.9-2.88 2.88 2.88 0 012.88 2.88zM168.69 15.23a2.89 2.89 0 11-2.9-2.88 2.9 2.9 0 012.9 2.88zM175.07 15.23a2.89 2.89 0 11-2.9-2.88 2.9 2.9 0 012.9 2.88zM181.45 15.23a2.89 2.89 0 11-2.9-2.88 2.9 2.9 0 012.9 2.88zM187.83 15.23a2.89 2.89 0 11-2.9-2.88 2.9 2.9 0 012.9 2.88zM194.21 15.23a2.89 2.89 0 11-2.9-2.88 2.9 2.9 0 012.9 2.88zM200.63 15.23a2.89 2.89 0 11-2.9-2.88 2.9 2.9 0 012.9 2.88zM155.93 21.41a2.89 2.89 0 11-2.93-2.89 2.9 2.9 0 012.93 2.89zM162.31 21.41a2.89 2.89 0 11-2.89-2.89 2.9 2.9 0 012.89 2.89zM168.69 21.41a2.89 2.89 0 11-2.89-2.89 2.89 2.89 0 012.89 2.89zM175.07 21.41a2.89 2.89 0 11-2.89-2.89 2.89 2.89 0 012.89 2.89zM181.45 21.41a2.89 2.89 0 11-2.89-2.89 2.89 2.89 0 012.89 2.89zM187.83 21.41a2.89 2.89 0 11-2.89-2.89 2.89 2.89 0 012.89 2.89zM194.21 21.41a2.89 2.89 0 11-2.89-2.89 2.89 2.89 0 012.89 2.89zM187.83 27.58a2.89 2.89 0 11-2.89-2.89 2.89 2.89 0 012.89 2.89z"/>
  </g>
</svg>
