<svg width="212" height="21" xmlns="http://www.w3.org/2000/svg"><g fill-rule="nonzero" fill="none"><path d="M7.6.1h2.3l15.3 17.2h.3V.1h2.2v20h-2.8L10.1 3.3h-.5v16.9h-2V.1zm72.2 0h2.3l15.2 17.2h.3V.1h2.2v20H97L82.3 3.3h-.5v16.9h-2V.1zM37.9.1c7.1 0 11.2 3.4 11.2 10s-4.1 10-11.2 10H32V.1h5.9zm.5 18.4c6.1 0 8.6-3.3 8.6-8.4 0-5.9-3.8-8.5-10-8.4h-3v16.7l4.4.1zM53 20.1V0h2.3v20.1H53zm4.8 0l9-20h2.6l8.9 20h-2l-3.7-8.2h-9L60 20.1h-2.2zm14.1-9.8l-3.7-8.5h-.1l-3.8 8.5h7.6zm29.8 9.8l9-20h2.6l8.9 20h-2l-3.7-8.2h-9l-3.6 8.2h-2.2zm14-9.8L112 1.8h-.1l-3.8 8.5h7.6zM0 20.1V0h2.3v20.1H0z" fill="#FFF"/><path d="M124.9.1h19.9v3.3h-7.3v16.7h-5.3V3.4h-7.3V.1zm22.7 0h19.2v3.3h-13v5.2h11.3v3.3h-11.3v4.9h13v3.3h-19.2V.1zm36.6 13c-.7 2.1-2.7 3.5-4.9 3.3-3.9 0-5.3-2.7-5.3-6.1 0-3.4 1.5-6.1 5.3-6.1 2.1-.2 4.1 1.1 4.8 3.1l4.5-.7c-2-5.3-8-7.9-13.2-5.9-5.2 2-7.9 8-5.9 13.2 2 5.3 8 7.9 13.2 5.9 2.8-1.1 5-3.3 6-6.1l-4.5-.6zm7.6 7V.1h5.2v8.5h9.1V.1h5.3v20h-5.2V12H197v8.1h-5.2z" fill="#FA4616"/></g></svg>